<svg width="24" height="24" viewBox="0 0 24 24" fill="none" xmlns="http://www.w3.org/2000/svg">
  <path d="M4 7.5C4 5.567 5.567 4 7.5 4H16.5C18.433 4 20 5.567 20 7.5V16.5C20 18.433 18.433 20 16.5 20H7.5C5.567 20 4 18.433 4 16.5V7.5Z" stroke="#C5CBD3" stroke-width="1.7"/>
  <path d="M8 9H11.25C12.2165 9 13 9.7835 13 10.75V13.25C13 14.2165 13.7835 15 14.75 15H16" stroke="#C5CBD3" stroke-width="1.7" stroke-linecap="round"/>
  <path d="M8 15H9.75C10.7165 15 11.5 14.2165 11.5 13.25V10.75C11.5 9.7835 12.2835 9 13.25 9H16" stroke="#89D185" stroke-width="1.7" stroke-linecap="round"/>
  <circle cx="8" cy="9" r="1.4" fill="#C5CBD3"/>
  <circle cx="16" cy="9" r="1.4" fill="#89D185"/>
  <circle cx="8" cy="15" r="1.4" fill="#89D185"/>
  <circle cx="16" cy="15" r="1.4" fill="#C5CBD3"/>
</svg>
